<?xml version="1.0" encoding="utf-8"?>
<!-- Generator: Adobe Illustrator 16.0.0, SVG Export Plug-In . SVG Version: 6.00 Build 0)  -->
<!DOCTYPE svg PUBLIC "-//W3C//DTD SVG 1.1//EN" "http://www.w3.org/Graphics/SVG/1.1/DTD/svg11.dtd">
<svg version="1.1" id="Layer_1" xmlns="http://www.w3.org/2000/svg" xmlns:xlink="http://www.w3.org/1999/xlink" x="0px" y="0px"
	 width="522.128px" height="48.189px" viewBox="36.038 34.844 522.128 48.189"
	 enable-background="new 36.038 34.844 522.128 48.189" xml:space="preserve">
<g>
	
		<linearGradient id="gradient_1_" gradientUnits="userSpaceOnUse" x1="8.3601" y1="83.0552" x2="602.5627" y2="83.0552" gradientTransform="matrix(1 0 0 -1 -8.3599 142.0205)">
		<stop  offset="0" style="stop-color:#555DA4"/>
		<stop  offset="1" style="stop-color:#FFFFFF;stop-opacity:0"/>
	</linearGradient>
	<rect id="gradient" x="0" display="none" fill="url(#gradient_1_)" width="594.202" height="117.931"/>
	<g id="MUSIC">
		<polyline fill="#FFFFFF" points="391.17,54.606 379.295,78.809 373.451,78.809 361.641,54.606 361.641,82.483 351.839,82.483 
			351.839,38.196 365.096,38.196 376.405,62.524 387.776,38.196 400.971,38.196 400.971,82.483 391.17,82.483 391.17,54.606 		"/>
		<path fill="#FFFFFF" d="M423.4,71.047c1.633,2.049,3.833,3.072,6.597,3.072c2.766,0,4.952-1.023,6.565-3.072
			s2.42-4.848,2.42-8.396V38.196h9.801v24.773c0,6.42-1.759,11.354-5.277,14.794c-3.519,3.442-8.021,5.165-13.509,5.165
			c-5.485,0-10-1.73-13.539-5.196c-3.54-3.463-5.31-8.385-5.31-14.763V38.196h9.801v24.457
			C420.948,66.2,421.767,68.999,423.4,71.047"/>
		<path fill="#FFFFFF" d="M469.233,47.035c-0.941,0.781-1.415,1.816-1.415,3.104c0,1.289,0.575,2.312,1.729,3.073
			c1.149,0.76,3.811,1.658,7.979,2.692c4.167,1.037,7.402,2.588,9.705,4.658c2.304,2.069,3.457,5.091,3.457,9.062
			s-1.477,7.189-4.429,9.662c-2.953,2.471-6.84,3.705-11.656,3.705c-6.953,0-13.216-2.598-18.786-7.791l5.845-7.225
			c4.732,4.182,9.108,6.271,13.13,6.271c1.802,0,3.215-0.391,4.241-1.172s1.54-1.839,1.54-3.168c0-1.332-0.546-2.387-1.634-3.168
			c-1.091-0.781-3.246-1.572-6.472-2.375c-5.11-1.227-8.85-2.82-11.215-4.785c-2.367-1.963-3.551-5.046-3.551-9.25
			s1.496-7.445,4.491-9.727c2.996-2.28,6.733-3.42,11.216-3.42c2.932,0,5.863,0.507,8.796,1.52c2.933,1.014,5.487,2.451,7.665,4.308
			l-4.964,7.224c-3.812-2.915-7.75-4.372-11.812-4.372C471.463,45.862,470.176,46.252,469.233,47.035"/>
		<rect x="499.045" y="38.196" fill="#FFFFFF" width="9.801" height="44.288"/>
		<path fill="#FFFFFF" d="M539.818,73.741c4.817,0,8.756-1.924,11.812-5.767l6.283,6.524c-4.983,5.66-10.859,8.49-17.624,8.49
			s-12.336-2.154-16.712-6.463c-4.378-4.309-6.565-9.746-6.565-16.314c0-6.566,2.229-12.048,6.69-16.441
			c4.462-4.392,9.917-6.588,16.367-6.588c7.203,0,13.235,2.767,18.097,8.3l-6.097,6.969c-3.101-3.886-6.953-5.829-11.561-5.829
			c-3.688,0-6.839,1.214-9.456,3.643c-2.618,2.43-3.926,5.703-3.926,9.821c0,4.117,1.233,7.424,3.707,9.916
			C533.306,72.495,536.301,73.741,539.818,73.741"/>
	</g>
	<g id="to">
		<path fill="#FFFFFF" d="M330.767,64.366c0,5.098-1.75,9.391-5.251,12.877c-3.5,3.485-7.898,5.229-13.19,5.229
			c-5.294,0-9.69-1.743-13.19-5.229c-3.5-3.486-5.25-7.779-5.25-12.877c0-5.101,1.75-9.404,5.25-12.911
			c3.5-3.508,7.896-5.263,13.19-5.263c5.292,0,9.69,1.755,13.19,5.263C329.017,54.962,330.767,59.266,330.767,64.366
			 M303.671,64.366c0,2.875,0.812,5.219,2.431,7.026c1.62,1.81,3.696,2.712,6.224,2.712c2.528,0,4.604-0.902,6.224-2.712
			s2.432-4.151,2.432-7.026c0-2.877-0.812-5.23-2.432-7.061c-1.62-1.83-3.695-2.746-6.224-2.746c-2.527,0-4.604,0.916-6.224,2.746
			C304.482,59.136,303.671,61.489,303.671,64.366z"/>
		<path fill="#FFFFFF" d="M279.364,53.841v15.753c0,1.352,0.347,2.408,1.038,3.17c0.69,0.763,1.513,1.145,2.462,1.145
			c1.815,0,3.35-0.828,4.604-2.484l3.629,6.863c-3.025,2.789-6.212,4.185-9.561,4.185c-3.35,0-6.181-1.11-8.492-3.334
			c-2.312-2.224-3.468-5.251-3.468-9.085V53.841h-4.083V46.78h4.083V36.256h9.787V46.78h8.427v7.061H279.364"/>
	</g>
	<g id="BACK">
		<path fill="#FFFFFF" d="M218.357,36.438L193.813,59.2l24.544,22.761h-14.886L186.37,66.103V52.297l17.102-15.859H218.357
			 M186.37,66.103V52.297l-7.442,6.903L186.37,66.103"/>
		<polyline fill="#FFFFFF" points="248.264,36.438 233.378,36.438 208.834,59.2 233.378,81.961 248.264,81.961 223.72,59.2 
			248.264,36.438 		"/>
		<rect x="175.408" y="36.438" fill="#FFFFFF" width="10.073" height="45.525"/>
		<path fill="#FFFFFF" d="M148.864,72.974c4.951,0,8.999-1.976,12.143-5.927l6.458,6.709c-5.124,5.818-11.162,8.728-18.115,8.728
			c-6.954,0-12.681-2.215-17.18-6.644c-4.5-4.43-6.748-10.02-6.748-16.771c0-6.75,2.292-12.385,6.877-16.9
			c4.586-4.516,10.194-6.774,16.824-6.774c7.404,0,13.605,2.844,18.601,8.532l-6.265,7.163c-3.188-3.994-7.147-5.991-11.882-5.991
			c-3.79,0-7.031,1.248-9.722,3.744c-2.689,2.498-4.036,5.862-4.036,10.096c0,4.233,1.271,7.63,3.812,10.192
			C142.169,71.694,145.248,72.974,148.864,72.974"/>
		<path fill="#FFFFFF" d="M113.91,81.961l-4.198-9.834H90.79l-4.198,9.834H75.871l19.504-45.523h9.752l19.504,45.523H113.91
			 M100.283,49.984l-5.685,13.222h11.303L100.283,49.984z"/>
		<path fill="#FFFFFF" d="M55.801,81.961H36.038V36.438h17.565c3.058,0,5.693,0.369,7.912,1.106
			c2.216,0.739,3.885,1.737,5.005,2.996c2.023,2.345,3.036,4.994,3.036,7.947c0,3.561-1.142,6.209-3.423,7.945
			c-0.775,0.609-1.314,0.987-1.615,1.14c-0.302,0.152-0.839,0.402-1.614,0.749c2.798,0.609,5.026,1.879,6.686,3.811
			c1.657,1.933,2.486,4.332,2.486,7.197c0,3.17-1.077,5.969-3.229,8.4C66.348,80.551,62.001,81.961,55.801,81.961 M46.112,54.868
			h4.78c2.798,0,4.876-0.303,6.232-0.912c1.355-0.606,2.034-1.921,2.034-3.939s-0.624-3.354-1.872-4.006
			c-1.249-0.651-3.358-0.976-6.33-0.976h-4.845V54.868z M46.112,73.364h6.911c2.883,0,5.047-0.357,6.491-1.072
			c1.442-0.719,2.164-2.127,2.164-4.233s-0.766-3.495-2.293-4.169c-1.529-0.674-3.972-1.01-7.331-1.01h-5.942V73.364z"/>
	</g>
</g>
</svg>
