<?xml version="1.0" encoding="utf-8"?>
<!-- Generator: Adobe Illustrator 16.0.0, SVG Export Plug-In . SVG Version: 6.00 Build 0)  -->
<!DOCTYPE svg PUBLIC "-//W3C//DTD SVG 1.1//EN" "http://www.w3.org/Graphics/SVG/1.1/DTD/svg11.dtd">
<svg version="1.1" id="Layer_1" xmlns="http://www.w3.org/2000/svg" xmlns:xlink="http://www.w3.org/1999/xlink" x="0px" y="0px"
	 width="50px" height="50px" viewBox="0 0 50 50" enable-background="new 0 0 50 50" xml:space="preserve">
<g display="none">
	<path display="inline" fill="#0D0F0F" d="M25,15.745c4.341,0,7.873-3.532,7.873-7.873C32.873,3.531,29.342,0,25,0
		c-4.341,0-7.873,3.532-7.873,7.873C17.128,12.213,20.66,15.745,25,15.745z M25,1.595c3.46,0,6.277,2.816,6.277,6.277
		c0,3.461-2.816,6.277-6.277,6.277c-3.461,0-6.277-2.816-6.277-6.277C18.724,4.411,21.54,1.595,25,1.595z"/>
	<path display="inline" fill="#0D0F0F" d="M25,18.937c6.363,0,11.587,4.967,12,11.227H18.56c-0.44,0-0.798,0.357-0.798,0.799
		c0,0.439,0.357,0.797,0.798,0.797h19.264c0.439,0,0.797-0.357,0.797-0.797c0-7.512-6.109-13.622-13.621-13.622
		c-7.511,0-13.621,6.11-13.621,13.622c0,0.439,0.357,0.797,0.798,0.797h3.191c0.44,0,0.798-0.357,0.798-0.797
		c0-0.441-0.357-0.799-0.798-0.799h-2.368C13.413,23.904,18.638,18.937,25,18.937z"/>
	<path display="inline" fill="#0D0F0F" d="M14.938,40.182l-4.377-0.734l-2.051-3.936c-0.137-0.264-0.41-0.43-0.708-0.43
		s-0.57,0.166-0.708,0.43l-2.051,3.936l-4.377,0.734c-0.293,0.049-0.535,0.258-0.626,0.541s-0.019,0.594,0.189,0.805l3.109,3.168
		l-0.654,4.389c-0.044,0.295,0.08,0.588,0.32,0.764c0.24,0.174,0.559,0.201,0.825,0.068l3.973-1.979l3.973,1.979
		C11.887,49.973,12.009,50,12.13,50c0.166,0,0.331-0.051,0.469-0.152c0.241-0.176,0.364-0.469,0.32-0.764l-0.654-4.389l3.109-3.168
		c0.208-0.213,0.281-0.523,0.189-0.805C15.472,40.439,15.231,40.23,14.938,40.182z M10.849,43.859
		c-0.175,0.18-0.257,0.43-0.22,0.678l0.487,3.268l-2.958-1.473c-0.224-0.111-0.487-0.111-0.711,0l-2.958,1.473l0.487-3.268
		c0.037-0.248-0.044-0.498-0.22-0.678L2.44,41.502l3.259-0.547c0.247-0.041,0.46-0.195,0.575-0.418l1.527-2.93l1.527,2.93
		c0.116,0.223,0.329,0.377,0.576,0.418l3.259,0.547L10.849,43.859z"/>
	<path display="inline" fill="#0D0F0F" d="M32.137,40.182l-4.377-0.734l-2.052-3.936c-0.137-0.264-0.41-0.43-0.707-0.43
		s-0.57,0.166-0.708,0.43l-2.051,3.936l-4.377,0.734c-0.293,0.049-0.535,0.258-0.627,0.541c-0.092,0.283-0.019,0.594,0.19,0.805
		l3.109,3.168l-0.654,4.389c-0.043,0.295,0.08,0.588,0.32,0.764c0.24,0.174,0.559,0.201,0.825,0.068L25,47.938l3.972,1.979
		C29.086,49.973,29.207,50,29.328,50c0.166,0,0.33-0.051,0.469-0.152c0.242-0.176,0.365-0.469,0.32-0.764l-0.652-4.389l3.107-3.168
		c0.209-0.213,0.283-0.523,0.191-0.805C32.67,40.439,32.43,40.23,32.137,40.182z M28.047,43.859c-0.176,0.18-0.256,0.43-0.221,0.678
		l0.488,3.268l-2.958-1.473c-0.112-0.057-0.234-0.084-0.355-0.084c-0.122,0-0.244,0.027-0.355,0.084l-2.958,1.473l0.487-3.268
		c0.037-0.248-0.044-0.498-0.22-0.678l-2.315-2.357l3.259-0.547c0.247-0.041,0.459-0.195,0.575-0.418L25,37.607l1.527,2.93
		c0.115,0.223,0.328,0.377,0.576,0.418l3.258,0.547L28.047,43.859z"/>
	<path display="inline" fill="#0D0F0F" d="M49.961,40.723c-0.092-0.283-0.334-0.492-0.627-0.541l-4.377-0.734l-2.051-3.936
		c-0.137-0.264-0.41-0.43-0.707-0.43c-0.299,0-0.57,0.166-0.709,0.43l-2.051,3.936l-4.377,0.734
		c-0.293,0.049-0.535,0.258-0.627,0.541s-0.018,0.594,0.189,0.805l3.109,3.168l-0.652,4.389c-0.045,0.295,0.078,0.588,0.318,0.764
		c0.242,0.174,0.559,0.201,0.826,0.068l3.973-1.979l3.973,1.979C46.283,49.973,46.406,50,46.527,50c0.166,0,0.33-0.051,0.469-0.152
		c0.24-0.176,0.363-0.469,0.32-0.764l-0.654-4.389l3.109-3.168C49.98,41.316,50.053,41.006,49.961,40.723z M45.246,43.859
		c-0.176,0.18-0.258,0.43-0.221,0.678l0.486,3.268l-2.957-1.473c-0.111-0.057-0.234-0.084-0.355-0.084
		c-0.123,0-0.244,0.027-0.355,0.084l-2.959,1.473l0.488-3.268c0.035-0.248-0.045-0.498-0.221-0.678l-2.314-2.357l3.258-0.547
		c0.248-0.041,0.461-0.195,0.576-0.418l1.527-2.93l1.527,2.93c0.115,0.223,0.328,0.377,0.574,0.418l3.26,0.547L45.246,43.859z"/>
	<path display="inline" fill="#0D0F0F" d="M25,11.49c1.046,0,2.041-0.455,2.73-1.247c0.289-0.333,0.254-0.836-0.078-1.125
		c-0.334-0.289-0.838-0.254-1.127,0.079C26.141,9.64,25.584,9.894,25,9.894c-0.583,0-1.14-0.254-1.525-0.698
		c-0.289-0.333-0.793-0.368-1.126-0.079c-0.333,0.289-0.368,0.793-0.079,1.125C22.959,11.035,23.955,11.49,25,11.49z"/>
</g>
<g display="none">
	<circle display="inline" fill="#0D0F0F" cx="45.299" cy="15.03" r="0.798"/>
	<circle display="inline" fill="#0D0F0F" cx="45.299" cy="10.516" r="0.798"/>
	<path display="inline" fill="#0D0F0F" d="M47.484,20.622C49.111,18.74,50,16.364,50,13.85c0-2.771-1.078-5.375-3.037-7.334
		c-1.961-1.959-4.564-3.038-7.336-3.038c-2.512,0-4.889,0.888-6.771,2.514l-0.213-0.21c-0.314-0.309-0.818-0.306-1.129,0.008
		c-0.309,0.314-0.305,0.819,0.01,1.128l0.207,0.206c-1.602,1.875-2.477,4.233-2.477,6.727c0,0.321,0.016,0.639,0.045,0.956
		L7.157,39.553c-0.283,0.314-0.269,0.797,0.03,1.096l2.257,2.256L8.99,43.359c-1.689,1.689-4.438,1.689-6.128,0
		c-1.689-1.689-1.689-4.439,0-6.129l14.986-14.986c2.312-2.311,2.312-6.072,0-8.384s-6.073-2.312-8.384,0l-9.232,9.232l1.128,1.128
		l9.232-9.232c1.689-1.688,4.438-1.689,6.127,0c1.689,1.689,1.689,4.438,0,6.128L1.734,36.104c-2.312,2.311-2.312,6.072,0,8.383
		c1.156,1.156,2.674,1.734,4.192,1.734s3.037-0.578,4.192-1.734l0.454-0.453l2.257,2.258c0.155,0.154,0.359,0.232,0.564,0.232
		c0.19,0,0.38-0.066,0.532-0.203l21.223-18.988c0.004-0.004,3.523-3.154,3.523-3.154c0.316,0.029,0.635,0.044,0.955,0.044
		c2.492,0,4.852-0.874,6.727-2.476l0.209,0.211c0.156,0.156,0.361,0.234,0.564,0.234c0.205,0,0.408-0.076,0.564-0.232
		c0.312-0.311,0.312-0.815,0.002-1.128L47.484,20.622z M13.424,44.629l-2.287-2.287c-0.001-0.002-2.288-2.289-2.288-2.289
		L26.506,20.32c0.703,1.431,1.635,2.729,2.777,3.874c1.145,1.144,2.443,2.074,3.875,2.777L13.424,44.629L13.424,44.629z
		 M34.453,25.812c-1.508-0.65-2.867-1.573-4.041-2.748s-2.098-2.532-2.748-4.041l2.008-2.244c0.482,1.647,1.373,3.156,2.621,4.404
		s2.758,2.138,4.404,2.62L34.453,25.812z M39.627,22.626c-2.344,0-4.549-0.913-6.205-2.571c-1.658-1.657-2.572-3.861-2.572-6.206
		c0-2.07,0.715-4.031,2.021-5.603l1.684,1.657c0.154,0.153,0.357,0.229,0.559,0.229c0.207,0,0.412-0.08,0.568-0.238
		c0.311-0.314,0.307-0.819-0.008-1.128l-1.676-1.651c1.576-1.322,3.547-2.044,5.629-2.044c2.346,0,4.549,0.913,6.207,2.571
		s2.57,3.862,2.57,6.206c0,2.085-0.725,4.059-2.051,5.637l-8.418-8.457c-0.311-0.312-0.816-0.313-1.127-0.002
		c-0.312,0.311-0.314,0.816-0.004,1.128l8.418,8.456C43.652,21.917,41.695,22.626,39.627,22.626z"/>
</g>
<g display="none">
	<path display="inline" fill="#0D0F0F" d="M44.479,18.419h-1.171V0.936C43.308,0.419,42.889,0,42.371,0
		c-0.01,0-0.02,0.001-0.029,0.001c-0.01,0-0.02-0.001-0.029-0.001H10.687c-0.048,0-0.096,0.005-0.142,0.012
		C10.498,0.005,10.451,0,10.402,0C9.885,0,9.466,0.419,9.466,0.936v17.483H8.521c-0.517,0-0.936,0.419-0.936,0.936
		c0,0.517,0.419,0.936,0.936,0.936h17.043v14.936l-9.967,9.967c-0.366,0.365-0.366,0.959,0,1.324
		c0.183,0.183,0.422,0.273,0.662,0.273s0.479-0.091,0.662-0.273l8.643-8.643v11.189c0,0.517,0.418,0.936,0.936,0.936
		s0.936-0.419,0.936-0.936V37.758l8.76,8.76c0.184,0.182,0.423,0.273,0.662,0.273c0.24,0,0.479-0.092,0.662-0.273
		c0.365-0.365,0.365-0.959,0-1.324L27.436,35.11V20.291h17.043c0.518,0,0.937-0.419,0.937-0.936
		C45.415,18.838,44.996,18.419,44.479,18.419z M18.553,18.419V1.872h15.621v16.547H18.553z M36.047,1.872h5.389v16.547h-5.389V1.872
		z M11.338,1.872h5.343v16.547h-5.343V1.872z"/>
	<path display="inline" fill="#0D0F0F" d="M31.629,7.438H21.371c-0.517,0-0.936,0.419-0.936,0.936c0,0.517,0.419,0.936,0.936,0.936
		h10.258c0.518,0,0.936-0.419,0.936-0.936C32.564,7.857,32.146,7.438,31.629,7.438z"/>
	<path display="inline" fill="#0D0F0F" d="M21.371,5.594h10.258c0.517,0,0.936-0.419,0.936-0.936s-0.419-0.936-0.936-0.936H21.371
		c-0.517,0-0.936,0.419-0.936,0.936S20.854,5.594,21.371,5.594z"/>
	<path display="inline" fill="#0D0F0F" d="M31.629,11.154H21.371c-0.517,0-0.936,0.419-0.936,0.936c0,0.517,0.419,0.936,0.936,0.936
		h10.258c0.518,0,0.936-0.419,0.936-0.936C32.564,11.573,32.146,11.154,31.629,11.154z"/>
	<path display="inline" fill="#0D0F0F" d="M31.629,14.871H21.371c-0.517,0-0.936,0.419-0.936,0.936c0,0.517,0.419,0.936,0.936,0.936
		h10.258c0.518,0,0.936-0.419,0.936-0.936C32.564,15.29,32.146,14.871,31.629,14.871z"/>
</g>
<g>
	<g>
		<path fill="#0D0F0F" d="M25.051,11.931c2.024,0,3.619-1.702,3.619-3.607c0-2.018-1.595-3.607-3.619-3.607s-3.62,1.59-3.62,3.607
			C21.431,10.331,23.026,11.931,25.051,11.931z M25.051,6.612c0.961,0,1.595,0.744,1.595,1.59s-0.746,1.589-1.595,1.589
			s-1.595-0.642-1.595-1.589C23.456,7.356,24.09,6.612,25.051,6.612z"/>
		<path fill="#0D0F0F" d="M10.337,32.118c-2.024,0-3.62,1.589-3.62,3.607c0,2.018,1.595,3.606,3.62,3.606
			c1.922,0,3.62-1.589,3.62-3.606C13.957,33.707,12.362,32.118,10.337,32.118z M10.337,37.213c-0.849,0-1.595-0.744-1.595-1.59
			s0.644-1.59,1.595-1.59c0.849,0,1.595,0.744,1.595,1.59S11.298,37.213,10.337,37.213z"/>
		<path fill="#0D0F0F" d="M39.765,28.398c-3.375,0-6.34,1.569-8.221,4.025l-5.532-5.024v-5.838
			c5.215-0.489,9.376-4.953,9.376-10.262c0-5.737-4.58-10.302-10.337-10.302c-5.756,0-10.337,4.667-10.337,10.292
			c0,5.411,4.172,9.783,9.376,10.262v5.777l-5.552,5.055c-1.881-2.436-4.847-3.994-8.2-3.994C4.581,28.398,0,32.964,0,38.7
			c0,5.737,4.693,10.303,10.337,10.303S20.675,44.438,20.675,38.7c0-1.641-0.378-3.189-1.043-4.555l5.378-4.932l5.45,4.952
			c-0.665,1.365-1.033,2.904-1.033,4.534c0,5.737,4.693,10.303,10.338,10.303c5.756,0,10.337-4.565,10.337-10.303
			C50.102,32.964,45.521,28.398,39.765,28.398z M5.685,45.559c0.511-1.61,1.973-2.721,3.701-2.721h1.922
			c1.718,0,3.18,1.11,3.702,2.721c-1.33,0.896-2.935,1.427-4.652,1.427C8.62,46.985,7.014,46.455,5.685,45.559z M16.584,44.163
			c-1.012-1.916-3.016-3.241-5.276-3.241H9.386c-2.352,0-4.366,1.254-5.327,3.18c-1.257-1.457-2.024-3.343-2.024-5.411
			c0-4.565,3.732-8.284,8.313-8.284c4.479,0,8.312,3.719,8.312,8.284C18.65,40.79,17.873,42.705,16.584,44.163z M25.051,19.574
			c-1.728,0-3.323-0.53-4.652-1.427c0.511-1.61,1.974-2.721,3.702-2.721h1.922c1.718,0,3.18,1.111,3.701,2.721
			C28.374,19.054,26.778,19.574,25.051,19.574z M16.738,11.289c0-4.565,3.732-8.285,8.313-8.285c4.581,0,8.312,3.72,8.312,8.285
			c0,2.089-0.787,4.005-2.075,5.462c-1.013-1.916-3.017-3.24-5.276-3.24H24.09c-2.352,0-4.366,1.253-5.327,3.179
			C17.505,15.253,16.738,13.358,16.738,11.289z M35.102,45.559c0.512-1.61,1.974-2.721,3.701-2.721h1.923
			c1.718,0,3.18,1.11,3.701,2.721c-1.329,0.896-2.935,1.427-4.652,1.427S36.431,46.455,35.102,45.559z M46.001,44.163
			c-1.012-1.916-3.016-3.241-5.275-3.241h-1.923c-2.352,0-4.365,1.254-5.327,3.18c-1.257-1.457-2.024-3.343-2.024-5.411
			c0-4.565,3.732-8.284,8.313-8.284c4.58,0,8.312,3.719,8.312,8.284C48.077,40.79,47.29,42.705,46.001,44.163z"/>
		<path fill="#0D0F0F" d="M39.765,32.118c-2.024,0-3.62,1.589-3.62,3.607c0,2.018,1.596,3.606,3.62,3.606s3.619-1.589,3.619-3.606
			C43.384,33.707,41.789,32.118,39.765,32.118z M39.765,37.213c-0.849,0-1.596-0.744-1.596-1.59s0.645-1.59,1.596-1.59
			c0.95,0,1.595,0.744,1.595,1.59S40.726,37.213,39.765,37.213z"/>
	</g>
</g>
</svg>
