<?xml version="1.0" encoding="utf-8"?>
<!-- Generator: Adobe Illustrator 16.0.0, SVG Export Plug-In . SVG Version: 6.00 Build 0)  -->
<!DOCTYPE svg PUBLIC "-//W3C//DTD SVG 1.1//EN" "http://www.w3.org/Graphics/SVG/1.1/DTD/svg11.dtd">
<svg version="1.1" id="Layer_1" xmlns="http://www.w3.org/2000/svg" xmlns:xlink="http://www.w3.org/1999/xlink" x="0px" y="0px"
	 width="50px" height="50px" viewBox="0 0 50 50" enable-background="new 0 0 50 50" xml:space="preserve">
<g>
	<path fill="#0D0F0F" d="M25,15.745c4.341,0,7.873-3.532,7.873-7.873C32.873,3.531,29.342,0,25,0c-4.341,0-7.873,3.532-7.873,7.873
		C17.128,12.213,20.66,15.745,25,15.745z M25,1.595c3.46,0,6.277,2.816,6.277,6.277c0,3.461-2.816,6.277-6.277,6.277
		c-3.461,0-6.277-2.816-6.277-6.277C18.724,4.411,21.54,1.595,25,1.595z"/>
	<path fill="#0D0F0F" d="M25,18.937c6.363,0,11.587,4.967,12,11.227H18.56c-0.44,0-0.798,0.357-0.798,0.799
		c0,0.439,0.357,0.797,0.798,0.797h19.264c0.439,0,0.797-0.357,0.797-0.797c0-7.512-6.109-13.622-13.621-13.622
		c-7.511,0-13.621,6.11-13.621,13.622c0,0.439,0.357,0.797,0.798,0.797h3.191c0.44,0,0.798-0.357,0.798-0.797
		c0-0.441-0.357-0.799-0.798-0.799h-2.368C13.413,23.904,18.638,18.937,25,18.937z"/>
	<path fill="#0D0F0F" d="M14.938,40.182l-4.377-0.734l-2.051-3.936c-0.137-0.264-0.41-0.43-0.708-0.43s-0.57,0.166-0.708,0.43
		l-2.051,3.936l-4.377,0.734c-0.293,0.049-0.535,0.258-0.626,0.541s-0.019,0.594,0.189,0.805l3.109,3.168l-0.654,4.389
		c-0.044,0.295,0.08,0.588,0.32,0.764c0.24,0.174,0.559,0.201,0.825,0.068l3.973-1.979l3.973,1.979
		C11.887,49.973,12.009,50,12.13,50c0.166,0,0.331-0.051,0.469-0.152c0.241-0.176,0.364-0.469,0.32-0.764l-0.654-4.389l3.109-3.168
		c0.208-0.213,0.281-0.523,0.189-0.805C15.472,40.439,15.231,40.23,14.938,40.182z M10.849,43.859
		c-0.175,0.18-0.257,0.43-0.22,0.678l0.487,3.268l-2.958-1.473c-0.224-0.111-0.487-0.111-0.711,0l-2.958,1.473l0.487-3.268
		c0.037-0.248-0.044-0.498-0.22-0.678L2.44,41.502l3.259-0.547c0.247-0.041,0.46-0.195,0.575-0.418l1.527-2.93l1.527,2.93
		c0.116,0.223,0.329,0.377,0.576,0.418l3.259,0.547L10.849,43.859z"/>
	<path fill="#0D0F0F" d="M32.137,40.182l-4.377-0.734l-2.052-3.936c-0.137-0.264-0.41-0.43-0.707-0.43s-0.57,0.166-0.708,0.43
		l-2.051,3.936l-4.377,0.734c-0.293,0.049-0.535,0.258-0.627,0.541c-0.092,0.283-0.019,0.594,0.19,0.805l3.109,3.168l-0.654,4.389
		c-0.043,0.295,0.08,0.588,0.32,0.764c0.24,0.174,0.559,0.201,0.825,0.068L25,47.938l3.972,1.979C29.086,49.973,29.207,50,29.328,50
		c0.166,0,0.33-0.051,0.469-0.152c0.242-0.176,0.365-0.469,0.32-0.764l-0.652-4.389l3.107-3.168
		c0.209-0.213,0.283-0.523,0.191-0.805C32.67,40.439,32.43,40.23,32.137,40.182z M28.047,43.859c-0.176,0.18-0.256,0.43-0.221,0.678
		l0.488,3.268l-2.958-1.473c-0.112-0.057-0.234-0.084-0.355-0.084c-0.122,0-0.244,0.027-0.355,0.084l-2.958,1.473l0.487-3.268
		c0.037-0.248-0.044-0.498-0.22-0.678l-2.315-2.357l3.259-0.547c0.247-0.041,0.459-0.195,0.575-0.418L25,37.607l1.527,2.93
		c0.115,0.223,0.328,0.377,0.576,0.418l3.258,0.547L28.047,43.859z"/>
	<path fill="#0D0F0F" d="M49.961,40.723c-0.092-0.283-0.334-0.492-0.627-0.541l-4.377-0.734l-2.051-3.936
		c-0.137-0.264-0.41-0.43-0.707-0.43c-0.299,0-0.57,0.166-0.709,0.43l-2.051,3.936l-4.377,0.734
		c-0.293,0.049-0.535,0.258-0.627,0.541s-0.018,0.594,0.189,0.805l3.109,3.168l-0.652,4.389c-0.045,0.295,0.078,0.588,0.318,0.764
		c0.242,0.174,0.559,0.201,0.826,0.068l3.973-1.979l3.973,1.979C46.283,49.973,46.406,50,46.527,50c0.166,0,0.33-0.051,0.469-0.152
		c0.24-0.176,0.363-0.469,0.32-0.764l-0.654-4.389l3.109-3.168C49.98,41.316,50.053,41.006,49.961,40.723z M45.246,43.859
		c-0.176,0.18-0.258,0.43-0.221,0.678l0.486,3.268l-2.957-1.473c-0.111-0.057-0.234-0.084-0.355-0.084
		c-0.123,0-0.244,0.027-0.355,0.084l-2.959,1.473l0.488-3.268c0.035-0.248-0.045-0.498-0.221-0.678l-2.314-2.357l3.258-0.547
		c0.248-0.041,0.461-0.195,0.576-0.418l1.527-2.93l1.527,2.93c0.115,0.223,0.328,0.377,0.574,0.418l3.26,0.547L45.246,43.859z"/>
	<path fill="#0D0F0F" d="M25,11.49c1.046,0,2.041-0.455,2.73-1.247c0.289-0.333,0.254-0.836-0.078-1.125
		c-0.334-0.289-0.838-0.254-1.127,0.079C26.141,9.64,25.584,9.894,25,9.894c-0.583,0-1.14-0.254-1.525-0.698
		c-0.289-0.333-0.793-0.368-1.126-0.079c-0.333,0.289-0.368,0.793-0.079,1.125C22.959,11.035,23.955,11.49,25,11.49z"/>
</g>
</svg>
