<?xml version="1.0" encoding="utf-8"?>
<!-- Generator: Adobe Illustrator 18.0.0, SVG Export Plug-In . SVG Version: 6.00 Build 0)  -->
<!DOCTYPE svg PUBLIC "-//W3C//DTD SVG 1.1//EN" "http://www.w3.org/Graphics/SVG/1.1/DTD/svg11.dtd">
<svg version="1.1" id="Слой_1" xmlns="http://www.w3.org/2000/svg" xmlns:xlink="http://www.w3.org/1999/xlink" x="0px" y="0px"
	 viewBox="0 0 5 5" enable-background="new 0 0 5 5" xml:space="preserve">
<path display="none" d="M5.1,0h-5.1v5.2h5.1V0z M2.1,4.2V2.5H1.8V2h0.3c0,0,0-0.1,0-0.4c0-0.4,0.2-0.6,0.7-0.6c0.1,0,0.5,0,0.5,0
	v0.6c0,0-0.3,0-0.4,0c-0.1,0-0.2,0.1-0.2,0.2c0,0.1,0,0.3,0,0.3h0.5l0,0.6H2.8v1.7H2.1z"/>
<path display="none" fill="#FFFFFF" d="M5.1,0H0v5.2h5.1V0z M2.1,3.9c-0.3,0-0.7-0.1-0.9-0.3c0.3,0,0.6,0,0.9-0.3
	C1.8,3.4,1.6,3.2,1.5,3c0.1,0,0.2,0,0.3,0C1.5,2.9,1.3,2.6,1.3,2.4c0.1,0,0.2,0.1,0.3,0.1C1.3,2.3,1.3,1.9,1.4,1.6
	C1.7,2,2.2,2.2,2.7,2.3C2.6,1.9,2.8,1.5,3.2,1.5c0.2,0,0.3,0.1,0.4,0.2c0.1,0,0.3-0.1,0.4-0.1c0,0.1-0.1,0.3-0.3,0.3
	c0.1,0,0.2-0.1,0.3-0.1C4,1.9,3.9,2,3.8,2.1C3.9,3,3.2,3.9,2.1,3.9z"/>
<g>
	<path fill="#FFFFFF" d="M-0.1,0v5.2h2.6h2.6V0H-0.1z M3.1,2.1C2.9,1.9,2.7,1.8,2.5,1.8S2.1,1.9,2,2.1H1.1V1.7
		c0-0.2,0.1-0.4,0.2-0.5v0.6h0.1V1.2c0,0,0.1,0,0.1,0v0.7h0.1V1.1c0,0,0,0,0,0h0.1v0.7h0.1V1.1h1.6C3.7,1.1,4,1.4,4,1.7l0,0v0.4
		L3.1,2.1L3.1,2.1z M3.1,2.6c0,0.3-0.3,0.6-0.6,0.6S2,2.9,2,2.6C2,2.4,2,2.3,2.2,2.2c0,0,0.1-0.1,0.1-0.1C2.4,2,2.5,2,2.5,2
		s0.2,0,0.2,0.1c0.1,0,0.1,0.1,0.1,0.1C3,2.3,3.1,2.4,3.1,2.6z M1.7,4C1.4,4,1.1,3.8,1.1,3.5V2.2h0.8C1.8,2.3,1.8,2.4,1.8,2.6
		c0,0.4,0.3,0.7,0.7,0.7C3,3.3,3.3,3,3.3,2.6c0-0.2,0-0.3-0.1-0.4H4v1.3C4,3.8,3.7,4,3.4,4L1.7,4L1.7,4z"/>
</g>
<g display="none">
	<path display="inline" fill="#FFFFFF" d="M5.1,0H0v5.2h5.1V0z M1.1,3.8v-1c0-0.2,0.2-0.4,0.4-0.4h2c0.2,0,0.4,0.2,0.4,0.4v1
		c0,0.2-0.2,0.4-0.4,0.4h-2C1.3,4.2,1.1,4,1.1,3.8z M1.5,0.9h0.2l0.1,0.5L2,0.9h0.2L2,1.7v0.5H1.8V1.7L1.5,0.9z M3,2
		c0,0,0.1,0,0.1-0.1V1.2h0.2v0.9H3.1V2.1C3.1,2.1,3,2.2,2.9,2.2C2.9,2.2,2.8,2.1,2.8,2V1.2H3L3,2C3,2,3,2,3,2z M2.4,1.2
		c0.1,0,0.3,0.1,0.3,0.3v0.4c0,0.2-0.1,0.3-0.3,0.3c-0.2,0-0.3-0.1-0.3-0.3V1.5C2.2,1.3,2.3,1.2,2.4,1.2z"/>
	<path display="inline" fill="#FFFFFF" d="M2.9,3C2.9,3,2.8,3,2.8,3.1V2.7H2.6v1.2h0.2V3.8c0,0.1,0.1,0.1,0.2,0.1
		c0.1,0,0.2-0.1,0.2-0.2V3.2C3.1,3.1,3,3,2.9,3z M2.9,3.7C2.9,3.7,2.9,3.7,2.9,3.7c0,0.1-0.1,0.1-0.1,0.1c0,0,0,0,0,0V3.1
		c0,0,0,0,0,0c0,0,0.1,0,0.1,0c0,0,0,0,0,0.1V3.7z"/>
	<path display="inline" fill="#FFFFFF" d="M2.3,3.7C2.3,3.7,2.2,3.7,2.3,3.7c-0.1,0.1-0.1,0-0.1,0V3H2v0.7c0,0.2,0.1,0.2,0.2,0.1
		c0,0,0.1,0,0.1-0.1v0.1h0.2V3H2.3V3.7z"/>
	<polygon display="inline" fill="#FFFFFF" points="2,2.7 1.4,2.7 1.4,2.8 1.6,2.8 1.6,3.9 1.8,3.9 1.8,2.8 2,2.8 	"/>
	<path display="inline" fill="#FFFFFF" d="M3.7,3.6L3.7,3.6L3.5,3.5v0.1c0,0.1,0,0.1-0.1,0.1c-0.1,0-0.1-0.1-0.1-0.1V3.5h0.3V3.2
		C3.7,3.1,3.6,3,3.5,3C3.3,3,3.2,3.1,3.2,3.2v0.4c0,0.2,0.1,0.3,0.2,0.3C3.6,3.9,3.7,3.8,3.7,3.6z M3.4,3.2c0-0.1,0-0.1,0.1-0.1
		c0.1,0,0.1,0,0.1,0.1v0.1L3.4,3.2L3.4,3.2z"/>
	<path display="inline" fill="#FFFFFF" d="M2.4,2C2.5,2,2.5,2,2.4,2l0.1-0.5c0-0.1,0-0.1-0.1-0.1c0,0-0.1,0-0.1,0.1L2.4,2
		C2.4,2,2.4,2,2.4,2z"/>
</g>
<path display="none" fill="#FFFFFF" d="M0,0v5.2h5.1V0H0z M4.1,3.7l-0.5,0c0,0-0.1,0-0.3-0.1C3.2,3.5,3,3.1,2.9,3.2
	c-0.1,0-0.1,0.3-0.1,0.3s0,0.1,0,0.1c0,0-0.1,0-0.1,0H2.4c0,0-0.5,0-0.9-0.4C1,2.7,0.6,1.8,0.6,1.8s0-0.1,0-0.1c0,0,0.1,0,0.1,0h0.5
	c0,0,0.1,0,0.1,0c0,0,0,0.1,0,0.1S1.4,2,1.6,2.2C1.8,2.5,1.9,2.6,2,2.6C2.1,2.5,2,2,2,2S2,1.9,2,1.8c0-0.1-0.1-0.1-0.2-0.1
	c0,0,0-0.1,0.1-0.1c0.1,0,0.3,0,0.5,0c0.2,0,0.2,0,0.3,0c0.2,0,0.1,0.2,0.1,0.6c0,0.1,0,0.3,0.1,0.4c0,0,0.1,0,0.4-0.4
	C3.3,2,3.4,1.7,3.4,1.7s0,0,0.1-0.1c0,0,0.1,0,0.1,0h0.6c0,0,0.2,0,0.2,0.1C4.3,1.8,4.2,2,4,2.3C3.6,2.8,3.6,2.7,3.9,3
	c0.3,0.3,0.4,0.4,0.4,0.4C4.4,3.6,4.1,3.7,4.1,3.7z"/>
</svg>
