<?xml version="1.0" encoding="utf-8"?>
<!-- Generator: Adobe Illustrator 18.0.0, SVG Export Plug-In . SVG Version: 6.00 Build 0)  -->
<!DOCTYPE svg PUBLIC "-//W3C//DTD SVG 1.1//EN" "http://www.w3.org/Graphics/SVG/1.1/DTD/svg11.dtd">
<svg version="1.1" id="Слой_1" xmlns="http://www.w3.org/2000/svg" xmlns:xlink="http://www.w3.org/1999/xlink" x="0px" y="0px"
	 viewBox="0 0 70 70" enable-background="new 0 0 70 70" xml:space="preserve">
<path display="none" d="M71.1-0.6h-72v72.1h72V-0.6z M29.4,58.8V35.6h-4.8v-7.9h4.8c0,0,0-1.1,0-6.2c0-5.8,3.1-8.9,10-8.9
	c1.1,0,6.4,0,6.4,0v8.1c0,0-3.6,0-5,0c-1.8,0-2.1,0.7-2.1,2.6c0,1.5,0,4.4,0,4.4h7.2l-0.7,7.8h-6.5v23.3H29.4z"/>
<path display="none" d="M71.3-0.1h-72V72h72V-0.1z M29.8,54.6c-4.7,0-9.1-1.4-12.8-3.8c4.4,0.5,8.9-0.7,12.4-3.5
	c-3.7-0.1-6.7-2.5-7.8-5.8c1.3,0.3,2.6,0.2,3.8-0.1c-4-0.8-6.8-4.4-6.7-8.3c1.1,0.6,2.4,1,3.8,1c-3.7-2.5-4.8-7.4-2.6-11.1
	c4.1,5.1,10.3,8.4,17.2,8.7c-1.2-5.2,2.7-10.3,8.1-10.3c2.4,0,4.6,1,6.1,2.6c1.9-0.4,3.7-1.1,5.3-2c-0.6,2-1.9,3.6-3.7,4.6
	c1.7-0.2,3.3-0.7,4.8-1.3c-1.1,1.7-2.5,3.1-4.2,4.3C54,41.5,45.3,54.6,29.8,54.6z"/>
<g display="none">
	<path display="inline" d="M-0.9-0.1V72H35h36.1V-0.1H-0.9z M42.9,28.9c-1.9-1.9-4.5-3.1-7.4-3.1c-2.9,0-5.5,1.2-7.4,3.1H15.3v-5.3
		c0-2.7,1.3-5.1,3.4-6.5v8.6h1.6v-9.5c0.4-0.1,0.8-0.3,1.2-0.4v9.9h1.6V15.7c0.1,0,0.1,0,0.2,0h0.9v10.1h1.6V15.7h21.9
		c4.4,0,8,3.6,8,8h0v5.3H42.9z M43.5,36.2c0,4.4-3.6,8-8,8c-4.4,0-8-3.6-8-8c0-2.4,1.1-4.5,2.7-6c0.6-0.5,1.2-0.9,2-1.3
		c1-0.5,2.1-0.7,3.3-0.7c1.2,0,2.3,0.3,3.3,0.7c0.7,0.3,1.4,0.8,2,1.3C42.5,31.7,43.5,33.8,43.5,36.2z M23.3,56.3c-4.4,0-8-3.6-8-8
		V30.2h11.8c-1.2,1.7-1.9,3.8-1.9,6c0,5.7,4.6,10.4,10.4,10.4c5.7,0,10.4-4.6,10.4-10.4c0-2.2-0.7-4.3-1.9-6h11.8v18.2
		c0,4.4-3.6,8-8,8H23.3z"/>
</g>
<g>
	<path fill="#FFFFFF" d="M71.3,0.2h-72v72.1h72V0.2z M15.8,52.7V38.8c0-3,2.5-5.5,5.5-5.5h28.3c3,0,5.5,2.5,5.5,5.5v13.9
		c0,3-2.5,5.5-5.5,5.5H21.3C18.3,58.2,15.8,55.7,15.8,52.7z M21.6,12.8h2.7l1.9,7l1.7-7h2.7l-3.2,10.4v7.1h-2.7v-7.1L21.6,12.8z
		 M42.6,28.1c0.5,0,1.1-0.6,1.4-1v-9.8h2.4v12.9H44v-1.4c-1,1.2-2.1,1.6-2.8,1.6c-1.3,0-1.7-1-1.7-2.3V17.4H42v9.9
		C42,27.8,42.1,28.1,42.6,28.1z M34.1,17.3c2,0,3.5,1.5,3.5,3.5v6.3c0,2.2-1.5,3.5-3.5,3.5c-2.3,0-3.5-1.2-3.5-3.5v-6.3
		C30.6,18.7,32,17.3,34.1,17.3z"/>
	<path fill="#FFFFFF" d="M40.9,41.6c-0.8,0-1.5,0.5-2,1.2v-5.4h-2.3v16.7h2.3v-0.9c0.6,0.8,1.3,1.1,2.2,1.1c1.5,0,2.1-1.2,2.1-2.7
		v-6.8C43.1,43,42.6,41.6,40.9,41.6z M40.8,51.2c0,0.4-0.1,0.7-0.2,0.8c-0.3,0.3-0.8,0.3-1.2,0.1c-0.2-0.1-0.4-0.2-0.5-0.4V44
		c0.2-0.2,0.3-0.3,0.5-0.4c0.4-0.2,0.9-0.2,1.2,0.2c0.2,0.2,0.2,0.5,0.2,0.9V51.2z"/>
	<path fill="#FFFFFF" d="M32,51.1c-0.3,0.4-0.9,0.9-1.3,0.9c-0.5,0-0.6-0.3-0.6-0.8v-9.4h-2.3V52c0,2.5,1.7,2.5,2.9,1.8
		c0.5-0.3,0.9-0.6,1.3-1.1v1.4h2.3V41.7H32V51.1z"/>
	<polygon fill="#FFFFFF" points="27.8,37.4 19.9,37.4 19.9,39.8 22.5,39.8 22.5,54.1 25.1,54.1 25.1,39.8 27.8,39.8 	"/>
	<path fill="#FFFFFF" d="M51.6,50.6v-0.9h-2.4v0.9c0,1.1-0.1,1.7-1,1.7c-0.9,0-1-0.8-1-1.7v-2.3h4.4v-3.1c0-2.2-1.1-3.6-3.3-3.6
		c-2.1,0-3.5,1.5-3.5,3.6v5.5c0,2.2,1.1,3.8,3.3,3.8C50.6,54.4,51.6,53,51.6,50.6z M47.2,45c0-0.8,0.2-1.4,1-1.4c0.8,0,1,0.6,1,1.4
		v1.2h-2V45z"/>
	<path fill="#FFFFFF" d="M34.1,28.2c0.6,0,1-0.5,1-1.2v-6c0-0.7-0.3-1.2-1.1-1.2c-0.7,0-1,0.5-1,1.2v6C33,27.6,33.4,28.2,34.1,28.2z
		"/>
</g>
<path display="none" fill-rule="evenodd" clip-rule="evenodd" fill="#FFFFFF" d="M0-0.1V72h72V-0.1H0z M57.8,51.1l-7,0.1
	c0,0-1.5,0.3-3.5-1.1c-2.6-1.8-5.1-6.4-7-5.8c-1.9,0.6-1.9,4.8-1.9,4.8s0,0.9-0.4,1.4c-0.5,0.5-1.4,0.6-1.4,0.6h-3.1
	c0,0-6.9,0.4-12.9-5.9C14.1,38.3,8.3,24.7,8.3,24.7s-0.3-0.9,0-1.3c0.4-0.5,1.5-0.5,1.5-0.5l7.4,0c0,0,0.7,0.1,1.2,0.5
	c0.4,0.3,0.6,0.9,0.6,0.9s1.2,3,2.8,5.8c3.1,5.4,4.6,6.5,5.6,6c1.5-0.8,1.1-7.6,1.1-7.6s0-2.5-0.8-3.5c-0.6-0.8-1.8-1.1-2.3-1.2
	c-0.4-0.1,0.3-1,1.2-1.5c1.3-0.7,3.7-0.7,6.5-0.7c2.2,0,2.8,0.2,3.7,0.4c2.6,0.6,1.7,3,1.7,8.7c0,1.8-0.3,4.4,1,5.3
	c0.6,0.4,2,0.1,5.4-5.9c1.7-2.8,2.9-6.1,2.9-6.1s0.3-0.6,0.7-0.8c0.4-0.3,1-0.2,1-0.2l7.8,0c0,0,2.4-0.3,2.7,0.8
	c0.4,1.1-0.9,3.7-4.1,8c-5.3,7-5.8,6.3-1.5,10.4c4.2,3.9,5,5.7,5.2,6C61.5,50.9,57.8,51.1,57.8,51.1z"/>
</svg>
